<svg width="400" height="400" viewBox="0 0 400 400" fill="none" xmlns="http://www.w3.org/2000/svg">
<rect width="400" height="400" fill="#1BA2F3"/>
<path fill-rule="evenodd" clip-rule="evenodd" d="M58.5 314.5C77.3 272.5 75.3333 252.333 72 247.5C63.6667 227.667 52.9 177 76.5 133C84 151.5 93.3333 140.333 95.5 134C97.7237 127.5 93.4 118.2 81 123C92.6667 97.3333 131.1 56.9 191.5 100.5C215 124.667 260 180.6 252 211C248.333 227.5 228.6 261.8 179 267C177.333 267.5 175.3 269.4 180.5 273C187 277.5 245.5 260.5 260.5 213C259 222 270.9 248.9 330.5 284.5C337.833 291 351.4 305.7 347 312.5L58.5 314.5ZM151.5 120.5C143.333 111.333 122.4 98.5 104 120.5C98.8 131.3 98.8333 151 99.5 159.5C97.9 173.5 114.833 213 123.5 231C141.5 207 150.667 181 153 171C159.4 146.6 154.667 127.167 151.5 120.5ZM187 120.5C182.667 119 173 121 174 133.5C174.16 135.494 177.5 145.5 188.5 141.5C195.5 137.5 192.778 122.5 187 120.5Z" fill="white"/>
<path d="M112.5 123C122.9 113 137.833 118.833 144 123C147.333 130.5 152.3 150.2 145.5 169C142.5 179.5 134.2 203.2 125 214C114.833 195.833 98.1 152.2 112.5 123Z" fill="white"/>
</svg>
